<?xml version="1.0" encoding="UTF-8" standalone="no"?>
<!-- Created with Inkscape (http://www.inkscape.org/) -->

<svg
   xmlns:dc="http://purl.org/dc/elements/1.1/"
   xmlns:cc="http://creativecommons.org/ns#"
   xmlns:rdf="http://www.w3.org/1999/02/22-rdf-syntax-ns#"
   xmlns:svg="http://www.w3.org/2000/svg"
   xmlns="http://www.w3.org/2000/svg"
   xmlns:xlink="http://www.w3.org/1999/xlink"
   xmlns:sodipodi="http://sodipodi.sourceforge.net/DTD/sodipodi-0.dtd"
   xmlns:inkscape="http://www.inkscape.org/namespaces/inkscape"
   width="210mm"
   height="297mm"
   viewBox="0 0 744.09448819 1052.3622047"
   id="svg2"
   version="1.1"
   inkscape:version="0.91 r"
   sodipodi:docname="f7b-colour.svg">
  <title
     id="title5038">Credit Card meets the Rods</title>
  <defs
     id="defs4">
    <color-profile
       name="sRGB"
       xlink:href="/usr/share/color/icc/colord/sRGB.icc"
       id="color-profile7358" />
  </defs>
  <sodipodi:namedview
     id="base"
     pagecolor="#ffffff"
     bordercolor="#666666"
     borderopacity="1.0"
     inkscape:pageopacity="0.0"
     inkscape:pageshadow="2"
     inkscape:zoom="0.5986532"
     inkscape:cx="372.04724"
     inkscape:cy="526.1811"
     inkscape:document-units="mm"
     inkscape:current-layer="layer1"
     showgrid="false"
     inkscape:window-width="1302"
     inkscape:window-height="786"
     inkscape:window-x="221"
     inkscape:window-y="68"
     inkscape:window-maximized="0" />
  <metadata
     id="metadata7">
    <rdf:RDF>
      <cc:Work
         rdf:about="">
        <dc:format>image/svg+xml</dc:format>
        <dc:type
           rdf:resource="http://purl.org/dc/dcmitype/StillImage" />
        <dc:title>Credit Card meets the Rods</dc:title>
        <dc:date>2015-05-03</dc:date>
        <dc:creator>
          <cc:Agent>
            <dc:title>Stewart C. Russell — scruss.com</dc:title>
          </cc:Agent>
        </dc:creator>
        <cc:license
           rdf:resource="http://www.wtfpl.net/txt/copying/" />
      </cc:Work>
    </rdf:RDF>
  </metadata>
  <g
     inkscape:label="Layer 1"
     inkscape:groupmode="layer"
     id="layer1">
    <g
       transform="matrix(0.28268507,0,0,-0.28268507,606.83028,752.65312)"
       inkscape:label="ink_ext_XXXXXX"
       id="g4163"
       style="fill:#a62929;fill-opacity:1;stroke:#000000;stroke-width:5.95387268;stroke-linecap:round;stroke-linejoin:round;stroke-miterlimit:4;stroke-dasharray:none;stroke-opacity:1">
      <g
         transform="scale(0.1,0.1)"
         id="g4165"
         style="fill:#a62929;fill-opacity:1;stroke:#000000;stroke-width:59.53872681;stroke-linecap:round;stroke-linejoin:round;stroke-miterlimit:4;stroke-dasharray:none;stroke-opacity:1">
        <path
           inkscape:connector-curvature="0"
           id="path4167"
           style="fill:#a62929;fill-opacity:1;stroke:#000000;stroke-width:59.53872681;stroke-linecap:round;stroke-linejoin:round;stroke-miterlimit:4;stroke-dasharray:none;stroke-opacity:1"
           d="m 2115.15,213.93 821.1,0 c 680.22,0 1231.65,551.429 1231.65,1231.65 l 0,756.77 c 0,441.47 -236.29,849.19 -619.34,1068.67 l -290.58,166.44 c -140.36,80.4 -140.36,282.84 0,363.24 l 290.54,166.45 c 383.07,219.47 619.38,627.2 619.38,1068.69 l 0,756.74 c 0,680.22 -551.43,1231.65 -1231.65,1231.65 l -1642.2,0 C 613.828,7024.23 62.3984,6472.8 62.3984,5792.58 l 0,-756.77 c 0,-441.47 236.2896,-849.19 619.3436,-1068.67 L 972.324,3800.7 c 140.356,-80.4 140.356,-282.84 0,-363.24 L 681.781,3271.01 C 298.707,3051.54 62.3984,2643.81 62.3984,2202.32 l 0,-756.74 C 62.3984,765.359 613.828,213.93 1294.05,213.93 l 821.1,0 z m 0,821.1 -821.1,0 c -226.74,0 -410.55,183.81 -410.55,410.55 l 0,756.69 c 0,147.18 78.781,283.1 206.49,356.25 l 921.1,527.76 c 64.45,36.93 143.66,36.93 208.12,-0.01 l 921.13,-527.75 c 127.69,-73.15 206.46,-209.06 206.46,-356.22 l 0,-756.72 c 0,-226.74 -183.81,-410.55 -410.55,-410.55 l -821.1,0 z m 0,5168.1 821.1,0 c 226.74,0 410.55,-183.81 410.55,-410.55 l 0,-756.69 c 0,-147.18 -78.78,-283.1 -206.49,-356.25 l -921.1,-527.76 c -64.46,-36.93 -143.66,-36.93 -208.12,0.01 l -921.13,527.75 C 962.27,4752.79 883.5,4888.7 883.5,5035.86 l 0,756.72 c 0,226.74 183.81,410.55 410.55,410.55 l 821.1,0 z" />
      </g>
    </g>
    <g
       transform="matrix(0.28268507,0,0,-0.28268507,312.25513,752.65312)"
       inkscape:label="ink_ext_XXXXXX"
       id="g4180"
       style="fill:#ffff00;fill-opacity:1;stroke:#000000;stroke-width:5.95387268;stroke-linecap:round;stroke-linejoin:round;stroke-miterlimit:4;stroke-dasharray:none;stroke-opacity:1">
      <g
         transform="scale(0.1,0.1)"
         id="g4182"
         style="fill:#ffff00;fill-opacity:1;stroke:#000000;stroke-width:59.53872681;stroke-linecap:round;stroke-linejoin:round;stroke-miterlimit:4;stroke-dasharray:none;stroke-opacity:1">
        <path
           inkscape:connector-curvature="0"
           id="path4184"
           style="fill:#ffff00;fill-opacity:1;stroke:#000000;stroke-width:59.53872681;stroke-linecap:round;stroke-linejoin:round;stroke-miterlimit:4;stroke-dasharray:none;stroke-opacity:1"
           d="m 2320.43,7104.73 1638.17,0 c 115.59,0 209.3,-93.71 209.3,-209.3 l 0,-402.5 c 0,-115.59 -93.71,-209.3 -209.3,-209.3 l -2865.8,0 c -115.589,0 -209.3,-93.71 -209.3,-209.3 l 0,-1835.4 c 0,-115.59 93.711,-209.3 209.3,-209.3 l 1634.15,0 c 795.81,0 1440.95,-645.14 1440.95,-1440.95 l 0,-1014.3 C 4167.9,778.57 3522.76,133.43 2726.95,133.43 l -1222.99,0 c -360.47,0 -718.769,55.918 -1062.097,165.754 L 220.566,369.941 C 110.457,405.148 49.7422,522.965 84.9609,633.07 l 122.6171,383.32 c 35.231,110.13 153.098,170.82 263.215,135.54 l 221.687,-70.86 c 262.29,-83.851 536,-126.539 811.36,-126.539 l 1223.11,0 c 342.33,0 619.85,277.519 619.85,619.849 l 0,1014.3 c 0,342.33 -277.52,619.85 -619.85,619.85 l -2455.251,0 c -115.59,0 -209.3006,93.71 -209.3006,209.3 l 0,3477.6 c 0,115.59 93.7106,209.3 209.3006,209.3 l 2048.731,0 z" />
      </g>
    </g>
    <g
       transform="matrix(0.28268507,0,0,-0.28268507,17.679988,752.65312)"
       inkscape:label="ink_ext_XXXXXX"
       id="g4197"
       style="fill:#bd2e70;fill-opacity:1;stroke:#000000;stroke-width:5.95387268;stroke-linecap:round;stroke-linejoin:round;stroke-miterlimit:4;stroke-dasharray:none;stroke-opacity:1">
      <g
         transform="scale(0.1,0.1)"
         id="g4199"
         style="fill:#bd2e70;fill-opacity:1;stroke:#000000;stroke-width:59.53872681;stroke-linecap:round;stroke-linejoin:round;stroke-miterlimit:4;stroke-dasharray:none;stroke-opacity:1">
        <path
           inkscape:connector-curvature="0"
           id="path4201"
           style="fill:#bd2e70;fill-opacity:1;stroke:#000000;stroke-width:59.53872681;stroke-linecap:round;stroke-linejoin:round;stroke-miterlimit:4;stroke-dasharray:none;stroke-opacity:1"
           d="m 2726.95,133.43 201.25,0 c 115.59,0 209.3,93.711 209.3,209.3 l 0,2656.5 c 0,115.59 93.71,209.3 209.3,209.3 l 611.8,0 c 115.59,0 209.3,93.71 209.3,209.3 l 0,402.5 c 0,115.59 -93.71,209.3 -209.3,209.3 l -611.8,0 c -115.59,0 -209.3,93.71 -209.3,209.3 l 0,2656.5 c 0,115.59 -93.71,209.3 -209.3,209.3 l -402.5,0 c -115.59,0 -209.3,-93.71 -209.3,-209.3 l 0,-2656.5 c 0,-115.59 -93.71,-209.3 -209.3,-209.3 l -1014.3,0 c -115.589,0 -209.3,93.71 -209.3,209.3 l 0,2656.5 c 0,115.59 -93.711,209.3 -209.301,209.3 l -402.5,0 c -115.59,0 -209.3006,-93.71 -209.3006,-209.3 l 0,-3477.6 c 0,-115.59 93.7106,-209.3 209.3006,-209.3 l 1835.401,0 c 115.59,0 209.3,-93.71 209.3,-209.3 l 0,-2656.5 c 0,-115.589 93.71,-209.3 209.3,-209.3 l 201.25,0 z" />
      </g>
    </g>
    <g
       transform="matrix(0.28268507,0,0,-0.28268507,303.85533,1000.9852)"
       inkscape:label="ink_ext_XXXXXX"
       id="g4248"
       style="fill:#000000;fill-opacity:1;stroke:#000000;stroke-width:5.95387268;stroke-linecap:round;stroke-linejoin:round;stroke-miterlimit:4;stroke-dasharray:none;stroke-opacity:1">
      <g
         transform="scale(0.1,0.1)"
         id="g4250"
         style="fill:#000000;fill-opacity:1;stroke:#000000;stroke-width:59.53872681;stroke-linecap:round;stroke-linejoin:round;stroke-miterlimit:4;stroke-dasharray:none;stroke-opacity:1">
        <path
           inkscape:connector-curvature="0"
           id="path4252"
           style="fill:#000000;fill-opacity:1;stroke:#000000;stroke-width:59.53872681;stroke-linecap:round;stroke-linejoin:round;stroke-miterlimit:4;stroke-dasharray:none;stroke-opacity:1"
           d="m 3757.35,133.43 201.25,0 c 115.59,0 209.3,93.711 209.3,209.3 l 0,6552.7 c 0,115.59 -93.71,209.3 -209.3,209.3 l -3686.901,0 c -115.59,0 -209.3006,-93.71 -209.3006,-209.3 l 0,-402.5 c 0,-115.59 93.7106,-209.3 209.3006,-209.3 l 2865.801,0 c 115.59,0 209.3,-93.71 209.3,-209.3 l 0,-5731.6 c 0,-115.589 93.71,-209.3 209.3,-209.3 l 201.25,0 z" />
      </g>
    </g>
    <g
       transform="matrix(0.28268507,0,0,-0.28268507,606.83028,504.32104)"
       inkscape:label="ink_ext_XXXXXX"
       id="g4214"
       style="fill:#0000ff;fill-opacity:1;stroke:#000000;stroke-width:5.95387268;stroke-linecap:round;stroke-linejoin:round;stroke-miterlimit:4;stroke-dasharray:none;stroke-opacity:1">
      <g
         transform="scale(0.1,0.1)"
         id="g4216"
         style="fill:#0000ff;fill-opacity:1;stroke:#000000;stroke-width:59.53872681;stroke-linecap:round;stroke-linejoin:round;stroke-miterlimit:4;stroke-dasharray:none;stroke-opacity:1">
        <path
           inkscape:connector-curvature="0"
           id="path4218"
           style="fill:#0000ff;fill-opacity:1;stroke:#000000;stroke-width:59.53872681;stroke-linecap:round;stroke-linejoin:round;stroke-miterlimit:4;stroke-dasharray:none;stroke-opacity:1"
           d="m 2115.15,7104.73 -605.83,0 C 711.176,7104.73 65.082,6455.96 68.3789,5657.82 L 65.9258,4653 C 63.9805,3855.81 709.684,3208.53 1506.87,3208.53 l 1220.08,0 0,0 c 120.91,0 241.35,15.22 358.47,45.3 l 0.01,-0.36 c 17.01,4.37 34.51,6.58 52.07,6.58 115.59,0 209.3,-93.71 209.3,-209.3 l 0,-2708.02 c 0,-115.589 93.71,-209.3 209.3,-209.3 l 402.5,0 c 115.59,0 209.3,93.711 209.3,209.3 l 0,5321.05 c 0,795.81 -645.14,1440.95 -1440.95,1440.95 l -611.8,0 z m 0,-821.1 611.8,0 c 342.33,0 619.85,-277.52 619.85,-619.85 l 0,-1014.3 c 0,-342.33 -277.52,-619.85 -619.85,-619.85 l -1223.6,0 c -342.33,0 -619.85,277.52 -619.85,619.85 l 0,1014.3 c 0,342.33 277.52,619.85 619.85,619.85 l 611.8,0 z" />
      </g>
    </g>
    <g
       transform="matrix(0.28268507,0,0,-0.28268507,307.08609,504.32104)"
       inkscape:label="ink_ext_XXXXXX"
       id="g4231"
       style="fill:#ffffff;fill-opacity:1;stroke:#000000;stroke-width:5.95387268;stroke-linecap:round;stroke-linejoin:round;stroke-miterlimit:4;stroke-dasharray:none;stroke-opacity:1">
      <g
         transform="scale(0.1,0.1)"
         id="g4233"
         style="fill:#ffffff;fill-opacity:1;stroke:#000000;stroke-width:59.53872681;stroke-linecap:round;stroke-linejoin:round;stroke-miterlimit:4;stroke-dasharray:none;stroke-opacity:1">
        <path
           inkscape:connector-curvature="0"
           id="path4235"
           style="fill:#ffffff;fill-opacity:1;stroke:#000000;stroke-width:59.53872681;stroke-linecap:round;stroke-linejoin:round;stroke-miterlimit:4;stroke-dasharray:none;stroke-opacity:1"
           d="m 2320.43,133.43 1638.17,0 c 115.59,0 209.3,93.711 209.3,209.3 l 0,402.5 c 0,115.59 -93.71,209.301 -209.3,209.301 l -1223.6,0 c -115.59,0 -209.3,93.709 -209.3,209.299 l 0,5731.6 c 0,115.59 -93.71,209.3 -209.3,209.3 l -409.04,0 c -56.73,0 -111.04,-23.03 -150.47,-63.82 l -395.98,-409.7 c -37.72,-39.02 -58.81,-91.18 -58.81,-145.45 l 0,-411.43 c 0,-115.59 93.71,-209.3 209.3,-209.3 l -16.1,0 c 115.59,0 209.3,-93.71 209.3,-209.3 l 0,-4491.9 c 0,-115.59 -93.71,-209.299 -209.3,-209.299 l -1223.601,0 C 156.109,954.531 62.3984,860.82 62.3984,745.23 l 0,-402.5 c 0,-115.589 93.7106,-209.3 209.3006,-209.3 l 2048.731,0 z" />
      </g>
    </g>
    <g
       transform="matrix(0.28268507,0,0,-0.28268507,17.323266,504.32104)"
       inkscape:label="ink_ext_XXXXXX"
       id="g4282"
       style="fill:#8fed8f;fill-opacity:1;stroke:#000000;stroke-width:5.95387268;stroke-linecap:round;stroke-linejoin:round;stroke-miterlimit:4;stroke-dasharray:none;stroke-opacity:1">
      <g
         transform="scale(0.1,0.1)"
         id="g4284"
         style="fill:#8fed8f;fill-opacity:1;stroke:#000000;stroke-width:59.53872681;stroke-linecap:round;stroke-linejoin:round;stroke-miterlimit:4;stroke-dasharray:none;stroke-opacity:1">
        <path
           inkscape:connector-curvature="0"
           id="path4286"
           style="fill:#8fed8f;fill-opacity:1;stroke:#000000;stroke-width:59.53872681;stroke-linecap:round;stroke-linejoin:round;stroke-miterlimit:4;stroke-dasharray:none;stroke-opacity:1"
           d="m 2119.18,133.43 607.77,0 c 795.81,0 1440.95,645.136 1440.95,1440.95 l 0,1014.3 c 0,327 -111.23,644.28 -315.4,899.71 l 0.57,0 c -29.65,37.1 -45.81,83.2 -45.81,130.69 0,47.5 16.16,93.59 45.81,130.69 l -0.57,0 c 204.17,255.43 315.4,572.71 315.4,899.71 l 0,1014.3 c 0,795.81 -645.14,1440.95 -1440.95,1440.95 l -1222.99,0 c -360.47,0 -718.769,-55.92 -1062.097,-165.75 L 220.566,6868.22 C 110.457,6833.01 49.7422,6715.2 84.9609,6605.09 L 207.578,6221.77 c 35.231,-110.13 153.098,-170.82 263.215,-135.54 l 221.687,70.87 c 262.29,83.84 536,126.53 811.36,126.53 l 1223.11,0 c 342.33,0 619.85,-277.52 619.85,-619.85 l 0,-1014.3 c 0,-342.33 -277.52,-619.85 -619.85,-619.85 l -1024.44,0 c -115.59,0 -209.3,-93.71 -209.3,-209.3 l 0,-402.5 c 0,-115.59 93.71,-209.3 209.3,-209.3 l 1024.44,0 c 342.33,0 619.85,-277.52 619.85,-619.85 l 0,-1014.3 c 0,-342.33 -277.52,-619.849 -619.85,-619.849 l -1223.1,0 c -275.37,0 -549.084,42.688 -811.377,126.539 l -221.727,70.96 C 360.645,1187.27 242.82,1126.56 207.602,1016.46 L 84.9688,633.094 C 49.7461,522.98 110.477,405.156 220.602,369.961 L 441.875,299.172 C 785.195,189.344 1143.48,133.43 1503.94,133.43 l 615.24,0 z" />
      </g>
    </g>
    <g
       transform="matrix(0.28268507,0,0,-0.28268507,311.65872,255.98899)"
       inkscape:label="ink_ext_XXXXXX"
       id="g4265"
       style="fill:#00ff00;fill-opacity:1;stroke:#000000;stroke-width:5.95387268;stroke-linecap:round;stroke-linejoin:round;stroke-miterlimit:4;stroke-dasharray:none;stroke-opacity:1">
      <g
         transform="scale(0.1,0.1)"
         id="g4267"
         style="fill:#00ff00;fill-opacity:1;stroke:#000000;stroke-width:59.53872681;stroke-linecap:round;stroke-linejoin:round;stroke-miterlimit:4;stroke-dasharray:none;stroke-opacity:1">
        <path
           inkscape:connector-curvature="0"
           id="path4269"
           style="fill:#00ff00;fill-opacity:1;stroke:#000000;stroke-width:59.53872681;stroke-linecap:round;stroke-linejoin:round;stroke-miterlimit:4;stroke-dasharray:none;stroke-opacity:1"
           d="m 2115.15,133.43 605.83,0 c 798.14,0 1444.23,648.773 1440.94,1446.91 l 2.46,1004.82 c 1.94,797.19 -643.77,1444.47 -1440.95,1444.47 l -1220.08,0 0,0 c -120.92,0 -241.36,-15.22 -358.47,-45.3 l -0.01,0.36 c -17.01,-4.37 -34.51,-6.58 -52.07,-6.58 -115.589,0 -209.3,93.71 -209.3,209.3 l 0,2708.02 c 0,115.59 -93.711,209.3 -209.301,209.3 l -402.5,0 c -115.59,0 -209.3006,-93.71 -209.3006,-209.3 l 0,-5321.05 C 62.3984,778.566 707.535,133.43 1503.35,133.43 l 611.8,0 z m 0,821.101 -611.8,0 c -342.33,0 -619.85,277.519 -619.85,619.849 l 0,1014.3 c 0,342.33 277.52,619.85 619.85,619.85 l 1223.6,0 c 342.33,0 619.85,-277.52 619.85,-619.85 l 0,-1014.3 c 0,-342.33 -277.52,-619.849 -619.85,-619.849 l -611.8,0 z" />
      </g>
    </g>
    <g
       transform="matrix(0.28268507,0,0,-0.28268507,17.679988,255.98899)"
       inkscape:label="ink_ext_XXXXXX"
       id="g4299"
       style="fill:#ff0000;fill-opacity:1;stroke:#000000;stroke-width:5.95387268;stroke-linecap:round;stroke-linejoin:round;stroke-miterlimit:4;stroke-dasharray:none;stroke-opacity:1">
      <g
         transform="scale(0.1,0.1)"
         id="g4301"
         style="fill:#ff0000;fill-opacity:1;stroke:#000000;stroke-width:59.53872681;stroke-linecap:round;stroke-linejoin:round;stroke-miterlimit:4;stroke-dasharray:none;stroke-opacity:1">
        <path
           inkscape:connector-curvature="0"
           id="path4303"
           style="fill:#ff0000;fill-opacity:1;stroke:#000000;stroke-width:59.53872681;stroke-linecap:round;stroke-linejoin:round;stroke-miterlimit:4;stroke-dasharray:none;stroke-opacity:1"
           d="m 2320.43,133.43 1638.17,0 c 115.59,0 209.3,93.711 209.3,209.3 l 0,402.5 c 0,115.59 -93.71,209.301 -209.3,209.301 l -2865.8,0 c -115.589,0 -209.3,93.709 -209.3,209.299 l 0,1424.85 c 0,342.33 277.52,619.85 619.85,619.85 l 1223.6,0 c 795.81,0 1440.95,645.14 1440.95,1440.95 l 0,1014.3 c 0,795.81 -645.14,1440.95 -1440.95,1440.95 l -1222.99,0 c -360.47,0 -718.769,-55.92 -1062.097,-165.75 L 220.566,6868.22 C 110.457,6833.01 49.7422,6715.2 84.9609,6605.09 L 207.578,6221.77 c 35.231,-110.13 153.098,-170.82 263.215,-135.54 l 221.687,70.87 c 262.29,83.84 536,126.53 811.36,126.53 l 1223.11,0 c 342.33,0 619.85,-277.52 619.85,-619.85 l 0,-1014.3 c 0,-342.33 -277.52,-619.85 -619.85,-619.85 l -1223.6,0 C 707.539,4029.63 62.3984,3384.49 62.3984,2588.68 l 0,-2245.95 c 0,-115.589 93.7106,-209.3 209.3006,-209.3 l 2048.731,0 z" />
      </g>
    </g>
    <g
       transform="matrix(0.28268507,0,0,-0.28268507,606.83028,255.98899)"
       inkscape:label="ink_ext_XXXXXX"
       id="g4316"
       style="fill:#ffa600;fill-opacity:1;stroke:#000000;stroke-width:5.95387268;stroke-linecap:round;stroke-linejoin:round;stroke-miterlimit:4;stroke-dasharray:none;stroke-opacity:1">
      <g
         transform="scale(0.1,0.1)"
         id="g4318"
         style="fill:#ffa600;fill-opacity:1;stroke:#000000;stroke-width:59.53872681;stroke-linecap:round;stroke-linejoin:round;stroke-miterlimit:4;stroke-dasharray:none;stroke-opacity:1">
        <path
           inkscape:connector-curvature="0"
           id="path4320"
           style="fill:#ffa600;fill-opacity:1;stroke:#000000;stroke-width:59.53872681;stroke-linecap:round;stroke-linejoin:round;stroke-miterlimit:4;stroke-dasharray:none;stroke-opacity:1"
           d="m 4167.9,3619.08 0,2044.7 c 0,795.81 -645.14,1440.95 -1440.95,1440.95 l -1223.6,0 C 707.535,7104.73 62.3984,6459.59 62.3984,5663.78 l 0,-4089.4 C 62.3984,778.566 707.535,133.43 1503.35,133.43 l 1223.6,0 c 795.81,0 1440.95,645.136 1440.95,1440.95 l 0,2044.7 z m -3284.4,0 0,2044.7 c 0,342.33 277.52,619.85 619.85,619.85 l 1223.6,0 c 342.33,0 619.85,-277.52 619.85,-619.85 l 0,-4089.4 c 0,-342.33 -277.52,-619.849 -619.85,-619.849 l -1223.6,0 c -342.33,0 -619.85,277.519 -619.85,619.849 l 0,2044.7 z" />
      </g>
    </g>
  </g>
</svg>
